<?xml version="1.0" standalone="no"?>
<!DOCTYPE svg PUBLIC "-//W3C//DTD SVG 20010904//EN"
 "http://www.w3.org/TR/2001/REC-SVG-20010904/DTD/svg10.dtd">
<svg version="1.0" xmlns="http://www.w3.org/2000/svg"
 width="1024.000000pt" height="1024.000000pt" viewBox="0 0 1024.000000 1024.000000"
 preserveAspectRatio="xMidYMid meet">
<metadata>
Created by potrace 1.14, written by Peter Selinger 2001-2017
</metadata>
<g transform="translate(0.000000,1024.000000) scale(0.100000,-0.100000)"
fill="#000000" stroke="none">
<path d="M4825 9943 c-392 -20 -831 -99 -1185 -212 -420 -133 -940 -401 -1310
-674 -253 -187 -384 -300 -610 -527 -148 -148 -184 -186 -280 -300 -30 -36
-61 -71 -68 -79 -29 -30 -211 -280 -264 -361 -137 -212 -297 -506 -390 -720
-88 -201 -206 -545 -248 -725 -121 -516 -157 -820 -147 -1265 20 -915 247
-1706 710 -2470 317 -524 865 -1097 1407 -1470 642 -442 1265 -673 2085 -775
179 -23 751 -32 978 -16 434 31 767 94 1136 217 671 223 1268 589 1791 1098
518 504 797 895 1084 1519 69 151 191 490 235 657 17 63 35 131 40 150 78 286
132 780 130 1174 -2 216 -2 224 -11 121 -5 -60 -6 -158 -3 -217 3 -60 1 -108
-3 -108 -11 0 -22 97 -22 194 0 80 -11 110 -29 80 -9 -17 -10 -15 -11 14 0 30
-2 32 -34 32 l-33 0 -13 120 -12 120 -34 0 c-33 0 -34 1 -34 40 l0 40 -80 0
-80 0 0 80 0 80 -40 0 -40 0 0 40 0 41 -77 -3 -78 -3 -2 -75 c-4 -159 -7 -160
-13 -5 -4 88 -3 162 2 163 12 5 10 46 -5 66 -12 16 -13 14 -9 -17 2 -19 -1
-38 -7 -41 -7 -5 -11 -73 -11 -207 0 -189 -1 -199 -19 -199 -18 0 -19 8 -18
118 2 150 -5 292 -14 286 -4 -2 -9 8 -11 23 -3 28 -4 28 -9 -4 -3 -19 -2 -30
4 -26 6 4 8 -11 4 -38 -4 -29 -3 -37 3 -24 7 17 9 16 9 -10 0 -16 -3 -36 -7
-43 -12 -17 -31 104 -31 192 0 38 -4 73 -10 79 -6 6 -11 26 -11 44 0 18 -3 33
-8 33 -4 0 -6 57 -5 126 1 69 0 124 -3 121 -10 -9 -12 -250 -3 -274 5 -13 6
-23 4 -23 -9 0 -22 42 -29 94 -5 33 -4 46 3 42 7 -5 8 -1 4 9 -5 14 -8 14 -15
3 -6 -8 -7 -2 -3 20 4 20 3 32 -4 32 -6 0 -11 8 -11 18 0 9 -9 41 -20 70 -11
29 -20 63 -20 77 0 13 -5 27 -11 31 -6 4 -9 19 -5 38 4 20 3 26 -3 17 -12 -19
-31 17 -31 59 0 18 -4 29 -10 25 -5 -3 -10 0 -10 7 0 7 -6 25 -14 40 -8 14
-17 45 -21 67 -4 23 -11 41 -15 41 -5 0 -12 10 -15 23 -4 12 -18 45 -30 72
-13 28 -26 58 -29 68 -3 9 -11 17 -18 16 -10 0 -10 -2 0 -6 6 -2 10 -8 7 -13
-2 -4 2 -20 9 -36 37 -74 86 -188 86 -198 0 -6 6 -22 13 -36 7 -14 28 -72 46
-130 18 -58 41 -130 51 -160 10 -30 30 -107 45 -170 15 -63 30 -122 33 -130 3
-8 7 -24 8 -36 1 -12 10 -56 19 -100 36 -177 47 -310 52 -634 4 -255 2 -360
-11 -490 -43 -428 -132 -786 -290 -1155 -58 -134 -197 -408 -250 -490 -131
-203 -147 -226 -277 -395 -76 -99 -244 -283 -355 -389 -348 -333 -727 -602
-1134 -804 -207 -103 -260 -126 -440 -192 -416 -153 -763 -222 -1228 -245
-322 -17 -776 13 -995 65 -34 8 -107 24 -162 35 -367 79 -904 307 -1240 529
-232 153 -378 272 -564 460 -168 170 -260 281 -416 496 -309 428 -506 846
-639 1355 -79 303 -115 571 -123 930 -12 536 45 965 184 1395 115 355 274 701
431 938 29 43 52 82 52 85 0 4 10 19 23 34 12 14 40 52 62 83 39 55 116 160
133 180 242 291 525 564 742 715 19 13 37 27 40 30 14 16 224 160 280 191 22
12 36 27 33 32 -3 6 -1 7 6 3 6 -4 24 1 39 11 15 10 40 24 57 31 21 9 26 15
16 21 -10 6 -9 10 4 14 9 4 13 3 10 -3 -10 -17 1 -12 158 64 185 90 383 170
577 232 235 77 618 152 860 170 41 3 77 8 80 10 11 11 -144 1 -257 -17 -67
-11 -143 -20 -170 -21 -26 -1 -61 -8 -76 -15 -26 -13 -55 -18 -161 -28 -21 -1
-43 -8 -49 -14 -6 -6 -20 -11 -31 -10 -21 0 -21 0 -1 9 15 7 7 9 -29 7 -28 -1
-51 3 -53 9 -2 6 11 10 34 8 75 -3 300 40 318 61 6 7 28 10 60 7 38 -4 45 -7
30 -13 -12 -5 5 -6 40 -2 33 3 65 10 70 15 6 6 -8 7 -40 3 -27 -4 -47 -4 -43
0 9 9 143 19 241 17 l77 -2 0 40 c0 40 0 40 40 40 l40 0 0 200 0 200 -40 0
c-29 0 -40 4 -40 15 0 11 -11 15 -40 15 -29 0 -40 -4 -40 -15 0 -17 -65 -21
-90 -5 -10 6 -11 10 -2 10 7 0 12 13 12 30 0 27 -3 30 -30 30 -24 0 -30 -4
-30 -21 0 -21 -3 -21 -107 -14 -60 3 -118 9 -130 12 -13 3 -23 1 -23 -5 0 -10
-57 -21 -142 -26 -26 -1 -53 -7 -60 -13 -7 -5 -44 -10 -83 -10 -38 0 -62 2
-52 4 9 2 15 8 13 11 -7 11 58 8 66 -3 4 -5 10 -6 15 -2 11 12 -17 26 -52 28
-29 1 -28 2 10 14 23 7 42 8 44 3 1 -5 10 -3 20 6 9 8 51 19 94 25 92 13 109
13 82 0 -14 -6 -10 -7 15 -2 45 9 69 9 102 0 22 -6 26 -4 22 7 -4 9 3 16 18
19 13 3 -4 3 -37 0 -33 -2 -69 -7 -80 -9 -16 -4 -17 -3 -6 5 8 5 53 12 100 16
47 3 138 13 201 20 235 28 625 35 905 15 130 -9 197 -17 375 -47 52 -9 129
-21 170 -28 41 -7 128 -24 193 -39 66 -15 121 -25 125 -22 3 3 -2 6 -10 6 -9
0 -38 7 -64 15 -104 31 -345 78 -539 104 -224 31 -682 48 -940 34z m-845 -152
c0 -4 -11 -6 -25 -3 -14 2 -25 6 -25 8 0 2 11 4 25 4 14 0 25 -4 25 -9z m-51
-10 c9 -6 0 -10 -28 -13 -43 -4 -57 7 -18 15 12 2 24 5 27 5 3 1 11 -2 19 -7z
m384 -18 c-13 -2 -33 -2 -45 0 -13 2 -3 4 22 4 25 0 35 -2 23 -4z m-588 -33
c-11 -5 -29 -12 -40 -16 -16 -6 -10 -9 25 -14 l45 -6 -40 -8 c-22 -4 -59 -12
-82 -18 -45 -11 -73 -6 -73 13 0 7 9 9 26 5 15 -4 23 -3 20 2 -7 12 88 48 129
50 6 0 1 -3 -10 -8z m-188 -81 c42 -16 11 -29 -65 -28 -38 1 -58 5 -50 10 7 5
27 6 45 3 41 -8 69 7 33 17 -15 4 -18 7 -8 8 9 1 29 -4 45 -10z m103 -18 c0
-5 -9 -11 -20 -14 -13 -3 -20 0 -20 9 0 8 9 14 20 14 11 0 20 -4 20 -9z m-243
-27 c-3 -3 -12 -4 -19 -1 -8 3 -5 6 6 6 11 1 17 -2 13 -5z m-97 -74 c6 -9 5
-17 -2 -21 -14 -9 -70 10 -63 21 3 5 -1 10 -7 13 -7 2 4 3 25 3 21 -1 42 -8
47 -16z m-125 -39 c15 -2 -17 -21 -36 -21 -9 0 -19 6 -22 13 -4 12 15 14 58 8z
m-250 -121 c3 -5 1 -10 -4 -10 -6 0 -11 5 -11 10 0 6 2 10 4 10 3 0 8 -4 11
-10z m-30 -10 c3 -5 2 -10 -4 -10 -5 0 -13 5 -16 10 -3 6 -2 10 4 10 5 0 13
-4 16 -10z m-69 -37 c-10 -11 -56 -11 -56 -1 0 4 14 8 32 8 17 0 28 -3 24 -7z
m-276 -153 c0 -5 -5 -10 -11 -10 -5 0 -7 5 -4 10 3 6 8 10 11 10 2 0 4 -4 4
-10z m1375 -60 c-3 -5 -12 -10 -18 -10 -7 0 -6 4 3 10 19 12 23 12 15 0z m-45
-10 c15 -1 -105 -39 -127 -40 -7 0 -13 4 -13 8 0 5 14 9 31 10 37 1 49 10 29
22 -13 8 10 8 80 0z m-1556 -89 c3 -4 -4 -17 -15 -27 -21 -19 -21 -19 -18 1 2
11 9 23 14 27 13 10 13 10 19 -1z m-54 -31 c0 -5 -5 -10 -11 -10 -5 0 -7 5 -4
10 3 6 8 10 11 10 2 0 4 -4 4 -10z m1225 -30 c-27 -12 -43 -12 -25 0 8 5 22 9
30 9 10 0 8 -3 -5 -9z m-96 -3 c-2 -1 -13 -9 -24 -17 -19 -14 -19 -14 -6 3 7
9 18 17 24 17 6 0 8 -1 6 -3z m27 -22 c-20 -15 -36 -19 -36 -10 0 5 38 23 50
24 3 0 -4 -6 -14 -14z m-72 -42 c-21 -15 -34 -17 -34 -4 0 10 17 18 39 18 9 0
8 -4 -5 -14z m-114 -23 c0 -5 -2 -10 -4 -10 -3 0 -8 5 -11 10 -3 6 -1 10 4 10
6 0 11 -4 11 -10z m35 -10 c-3 -5 -11 -10 -16 -10 -6 0 -7 5 -4 10 3 6 11 10
16 10 6 0 7 -4 4 -10z m-175 -89 c0 -5 -9 -11 -21 -14 -16 -4 -18 -3 -8 9 13
16 29 19 29 5z m-280 -176 c-7 -9 -15 -13 -17 -11 -7 7 7 26 19 26 6 0 6 -6
-2 -15z m-290 -219 c0 -2 -7 -7 -16 -10 -8 -3 -12 -2 -9 4 6 10 25 14 25 6z
m6710 -2965 c0 -17 -4 -33 -10 -36 -6 -4 -10 8 -10 29 0 20 5 36 10 36 6 0 10
-13 10 -29z m617 -423 c-2 -13 -4 -3 -4 22 0 25 2 35 4 23 2 -13 2 -33 0 -45z
m-620 -50 c-3 -8 -6 -5 -6 6 -1 11 2 17 5 13 3 -3 4 -12 1 -19z m643 -98 c1 8
5 4 9 -10 4 -14 4 -36 -1 -49 -5 -14 -6 -38 -3 -55 4 -24 3 -26 -4 -10 -5 11
-11 56 -14 100 -4 50 -3 66 2 44 5 -19 9 -28 11 -20z m20 35 c0 -8 -4 -15 -10
-15 -5 0 -10 7 -10 15 0 8 5 15 10 15 6 0 10 -7 10 -15z m-41 -99 c2 -45 -6
-27 -12 29 -4 34 -3 42 3 25 4 -14 8 -38 9 -54z m18 -138 c-3 -7 -5 -2 -5 12
0 14 2 19 5 13 2 -7 2 -19 0 -25z m-20 -60 c-3 -7 -5 -2 -5 12 0 14 2 19 5 13
2 -7 2 -19 0 -25z m-27 -265 c0 -10 -5 -25 -10 -33 -7 -11 -10 -7 -10 18 0 17
5 32 10 32 6 0 10 -8 10 -17z m-26 -121 c-13 -19 -19 -23 -22 -12 -3 8 0 16 7
18 6 2 11 16 11 30 1 24 2 25 11 9 8 -14 6 -25 -7 -45z"/>
<path d="M5748 9873 c7 -3 16 -2 19 1 4 3 -2 6 -13 5 -11 0 -14 -3 -6 -6z"/>
<path d="M4445 9850 c4 -6 11 -8 16 -5 14 9 11 15 -7 15 -8 0 -12 -5 -9 -10z"/>
<path d="M4165 9820 c-4 -6 11 -10 37 -9 36 1 39 2 18 9 -36 11 -48 11 -55 0z"/>
<path d="M6405 9770 c3 -5 16 -10 28 -9 21 0 21 1 2 9 -28 12 -37 12 -30 0z"/>
<path d="M6510 9739 c30 -11 66 -24 80 -28 66 -22 306 -114 333 -127 23 -12
28 -13 25 -2 -3 7 -22 19 -44 26 -21 7 -48 17 -59 22 -28 14 -173 66 -278 101
-97 32 -142 39 -57 8z"/>
<path d="M6990 9561 c55 -29 90 -35 40 -7 -25 14 -52 25 -60 25 -8 0 1 -8 20
-18z"/>
<path d="M7195 9465 c39 -19 75 -34 80 -34 16 0 -118 68 -135 68 -8 1 17 -15
55 -34z"/>
<path d="M7290 9420 c0 -5 5 -10 10 -10 6 0 29 -12 51 -26 22 -14 46 -24 52
-22 7 2 -16 18 -50 36 -35 18 -63 28 -63 22z"/>
<path d="M7465 9319 c33 -16 62 -34 63 -39 4 -12 22 -13 22 -2 0 10 -114 72
-132 72 -7 0 14 -14 47 -31z"/>
<path d="M4868 9273 c12 -2 32 -2 45 0 12 2 2 4 -23 4 -25 0 -35 -2 -22 -4z"/>
<path d="M5048 9273 c46 -2 118 -2 160 0 42 1 5 3 -83 3 -88 0 -123 -2 -77 -3z"/>
<path d="M5393 9263 c9 -2 25 -2 35 0 9 3 1 5 -18 5 -19 0 -27 -2 -17 -5z"/>
<path d="M5500 9260 c-20 -6 -21 -8 -5 -8 11 0 31 4 45 8 20 6 21 8 5 8 -11 0
-31 -4 -45 -8z"/>
<path d="M7560 9260 c0 -5 4 -10 8 -10 4 0 50 -25 101 -55 51 -31 95 -54 98
-52 4 5 -190 127 -201 127 -3 0 -6 -4 -6 -10z"/>
<path d="M5585 9250 c3 -5 8 -10 11 -10 2 0 4 5 4 10 0 6 -5 10 -11 10 -5 0
-7 -4 -4 -10z"/>
<path d="M5648 9243 c18 -2 45 -2 60 0 15 2 0 4 -33 4 -33 0 -45 -2 -27 -4z"/>
<path d="M5788 9223 c7 -3 16 -2 19 1 4 3 -2 6 -13 5 -11 0 -14 -3 -6 -6z"/>
<path d="M5830 9220 c0 -5 7 -7 15 -4 8 4 15 8 15 10 0 2 -7 4 -15 4 -8 0 -15
-4 -15 -10z"/>
<path d="M5878 9208 c5 -5 16 -8 23 -6 8 3 3 7 -10 11 -17 4 -21 3 -13 -5z"/>
<path d="M5993 9183 c9 -2 23 -2 30 0 6 3 -1 5 -18 5 -16 0 -22 -2 -12 -5z"/>
<path d="M6081 9166 c3 -4 48 -16 194 -52 16 -4 17 -3 5 5 -27 17 -213 61
-199 47z"/>
<path d="M4865 9150 c-692 -41 -1365 -267 -1945 -653 -97 -64 -248 -173 -260
-187 -3 -4 -15 -13 -27 -21 -92 -63 -379 -339 -518 -499 -447 -513 -766 -1158
-894 -1807 -101 -510 -107 -1139 -15 -1593 116 -575 325 -1083 595 -1447 221
-297 511 -473 874 -529 122 -19 418 -14 570 11 492 78 962 285 1440 634 50 36
97 71 105 78 8 6 65 51 126 100 252 199 565 515 757 763 37 47 72 92 80 100
33 37 161 217 239 335 104 159 189 311 290 515 91 185 113 234 168 375 44 112
100 275 95 275 -2 0 3 19 11 43 18 50 54 214 53 242 0 11 -6 2 -13 -20 l-13
-40 3 53 c2 28 6 56 9 62 10 16 18 457 8 463 -12 7 -8 150 5 174 13 24 4 72
-9 51 -6 -8 -9 5 -9 35 0 27 -4 56 -9 65 -13 27 -23 100 -10 82 8 -11 9 -6 4
20 -15 84 -16 117 -6 140 11 25 11 25 6 -3 -3 -16 -2 -26 3 -23 6 3 10 -25 10
-65 1 -39 4 -74 8 -78 3 -3 4 18 2 48 -6 61 4 50 21 -24 22 -99 37 -563 20
-660 -12 -72 -16 -100 -22 -185 -7 -84 6 -37 30 110 18 116 24 428 10 565 -14
131 -63 347 -98 430 -6 17 -13 37 -15 45 -5 24 -105 254 -119 274 -41 55 -443
102 -660 77 -203 -24 -437 -102 -589 -198 -30 -20 -36 -27 -25 -35 10 -7 9 -8
-7 -4 -44 13 -262 -169 -383 -319 -70 -86 -140 -185 -173 -245 -14 -25 -39
-70 -56 -100 -86 -153 -195 -488 -246 -755 l-11 -60 -32 80 c-29 74 -73 212
-87 278 -16 69 -36 270 -36 357 0 119 24 324 51 444 12 50 25 107 29 126 8 35
15 59 30 95 5 11 23 58 41 105 45 115 148 316 217 420 31 47 58 87 62 90 3 3
21 25 40 50 19 25 37 47 40 50 3 3 35 41 72 86 37 44 87 99 112 121 26 23 46
43 46 46 0 3 -9 7 -20 10 -13 3 -20 0 -20 -9 0 -8 -4 -14 -10 -14 -15 0 -12
27 6 44 8 9 28 16 44 16 28 0 29 2 20 26 -15 37 2 52 56 51 l45 0 -28 -23
c-15 -13 -33 -23 -39 -24 -11 0 -28 -40 -17 -40 3 0 27 19 52 43 48 44 80 69
173 138 56 41 57 43 37 57 -11 8 -23 11 -27 7 -3 -3 -1 -10 6 -14 10 -6 10
-11 -3 -21 -8 -7 -15 -8 -15 -3 0 5 -15 7 -34 5 -39 -5 -55 12 -26 28 14 8 26
8 40 0 22 -12 23 -10 20 53 -1 33 13 52 22 28 5 -16 70 -21 84 -7 7 8 10 16 7
20 -4 3 6 6 21 6 14 0 29 7 32 15 4 8 15 15 25 15 10 0 19 5 19 10 0 6 -5 10
-11 10 -21 0 -39 29 -39 62 0 28 4 34 22 35 12 1 28 -2 34 -8 8 -7 14 -7 19 1
9 15 61 12 78 -4 8 -8 32 -15 55 -14 55 1 70 -11 37 -28 -15 -8 -34 -14 -41
-14 -8 0 -14 -5 -14 -11 0 -6 -7 -8 -16 -5 -10 4 -13 2 -8 -6 5 -7 0 -9 -14
-6 -14 4 -20 2 -15 -4 4 -8 -4 -9 -25 -5 -31 6 -45 -6 -19 -17 7 -3 5 -4 -5
-3 -9 1 -24 -7 -35 -19 -10 -11 -40 -33 -66 -49 -38 -22 -51 -25 -57 -15 -5 9
-8 4 -7 -13 1 -14 7 -22 12 -19 6 3 35 22 65 42 30 21 96 57 145 81 50 24 92
46 95 49 5 5 68 29 145 57 22 7 49 18 60 23 66 30 406 90 525 92 31 1 36 3 16
5 -23 4 -26 7 -15 15 11 7 9 8 -6 3 -58 -21 -325 -42 -325 -26 0 6 -11 10 -24
9 -14 -1 -22 -6 -20 -10 3 -5 9 -6 13 -3 5 2 17 -3 27 -11 19 -15 19 -16 0 -9
-11 3 -22 1 -25 -4 -3 -5 -20 -11 -38 -14 -17 -3 -36 -8 -42 -11 -5 -4 -36
-11 -68 -17 -32 -6 -60 -14 -63 -18 -3 -3 -31 -17 -63 -30 -52 -21 -60 -22
-75 -8 -9 8 -22 12 -29 10 -6 -2 -15 1 -19 8 -5 9 2 11 30 6 25 -4 34 -2 30 5
-5 8 -1 9 12 4 22 -9 23 -9 46 -7 10 1 16 9 15 20 -1 20 -16 23 -30 6 -4 -5
-5 4 -1 20 4 17 8 31 9 33 4 5 80 4 127 -2 55 -6 70 7 40 34 -17 16 -26 18
-51 9 -25 -9 -34 -8 -47 5 -8 9 -29 16 -45 16 -16 0 -29 4 -29 9 0 13 45 19
98 13 35 -4 42 -7 27 -13 -19 -7 -19 -8 3 -8 13 -1 22 5 22 14 0 22 66 20 79
-2 9 -15 10 -14 11 10 0 25 -3 27 -40 27 -36 0 -40 3 -40 25 0 23 -4 25 -40
25 -40 0 -40 0 -40 39 0 22 -5 42 -12 44 -10 4 -9 8 2 16 13 10 13 12 0 22
-11 8 -12 12 -2 16 22 9 13 23 -15 23 -26 0 -26 1 -7 15 14 11 15 15 4 14 -24
-3 -50 12 -50 28 0 12 6 13 28 7 15 -4 44 -7 64 -6 20 2 40 -3 44 -9 5 -9 -2
-10 -24 -6 -19 4 -32 2 -32 -3 0 -6 26 -10 58 -10 40 0 53 3 42 10 -22 14 -4
12 36 -5 19 -8 32 -10 29 -4 -4 6 4 7 22 3 15 -4 29 -11 31 -15 2 -4 19 -5 39
-2 28 5 34 3 28 -7 -6 -10 -4 -12 8 -7 9 3 56 -3 104 -15 138 -33 306 -78 328
-88 32 -14 176 -60 189 -60 21 1 -50 29 -149 59 -55 17 -136 41 -180 55 -407
123 -944 184 -1400 156z m349 -9 c19 -7 19 -8 -2 -13 -12 -4 -20 -2 -17 2 3 5
-3 11 -12 13 -12 3 -13 5 -3 5 8 0 24 -3 34 -7z m-337 -7 c-3 -3 -12 -4 -19
-1 -8 3 -5 6 6 6 11 1 17 -2 13 -5z m136 -6 c-18 -5 -48 -5 -65 0 -28 7 -23 8
32 8 55 0 60 -1 33 -8z m-250 -5 c-7 -2 -21 -2 -30 0 -10 3 -4 5 12 5 17 0 24
-2 18 -5z m731 -5 c-7 -12 -52 -10 -59 2 -4 7 6 10 29 8 19 -1 32 -6 30 -10z
m-854 -18 c0 -5 -8 -10 -17 -10 -15 0 -16 2 -3 10 19 12 20 12 20 0z m-95 -10
c-11 -5 -33 -9 -50 -9 -23 -1 -27 -4 -15 -11 12 -8 10 -9 -10 -9 -14 1 -38 5
-55 8 -25 6 -18 9 45 18 96 13 110 14 85 3z m-101 -40 c4 -5 -14 -6 -40 -4
-27 3 -53 10 -59 15 -12 13 85 1 99 -11z m109 13 c-7 -2 -19 -2 -25 0 -7 3 -2
5 12 5 14 0 19 -2 13 -5z m-225 -20 c-10 -2 -18 -9 -18 -14 0 -5 -10 -9 -22
-9 -23 1 -23 1 2 15 14 8 32 14 40 13 10 0 10 -2 -2 -5z m-168 -33 c0 -5 -6
-10 -14 -10 -8 0 -18 5 -21 10 -3 6 3 10 14 10 12 0 21 -4 21 -10z m229 -4
c24 -3 46 -8 49 -10 7 -7 -87 -19 -103 -12 -18 7 -20 37 -2 31 6 -2 32 -6 56
-9z m-354 -26 c-28 -12 -37 -12 -30 0 3 6 16 10 28 9 21 0 21 -1 2 -9z m-225
-95 c16 -19 0 -19 -36 0 l-29 15 26 0 c15 0 32 -7 39 -15z m-60 -5 c13 -8 13
-10 -2 -10 -9 0 -20 5 -23 10 -8 13 5 13 25 0z m-46 -26 c5 -13 2 -15 -16 -10
-13 3 -27 6 -33 6 -14 0 17 20 31 20 7 0 15 -7 18 -16z m-61 -41 c-7 -2 -19
-2 -25 0 -7 3 -2 5 12 5 14 0 19 -2 13 -5z m-163 -47 c0 -3 -4 -8 -10 -11 -5
-3 -10 -1 -10 4 0 6 5 11 10 11 6 0 10 -2 10 -4z m-70 -26 c-20 -13 -33 -13
-25 0 3 6 14 10 23 10 15 0 15 -2 2 -10z m1867 -232 c-3 -7 -5 -2 -5 12 0 14
2 19 5 13 2 -7 2 -19 0 -25z m-197 -193 c-7 -8 -17 -15 -22 -15 -11 0 14 29
26 30 5 0 3 -7 -4 -15z m-64 -10 c9 -8 12 -19 9 -25 -10 -15 -35 -12 -35 5 0
8 -8 14 -17 13 -33 -2 -53 2 -53 12 0 16 80 12 96 -5z m-196 -136 c0 -5 -4 -9
-10 -9 -5 0 -10 7 -10 16 0 8 5 12 10 9 6 -3 10 -10 10 -16z m-135 -49 c0 -7
-6 -15 -12 -17 -8 -3 -13 4 -13 17 0 13 5 20 13 18 6 -3 12 -11 12 -18z m86
-1 c-2 -8 -4 -25 -5 -39 -2 -33 -34 -76 -63 -85 -33 -9 -30 25 3 56 27 24 27
24 21 2 -4 -20 -3 -21 14 -12 25 13 24 26 -1 34 -13 4 -20 15 -20 31 0 14 4
23 9 19 5 -3 13 -1 16 5 9 15 31 6 26 -11z m-96 -173 c-36 -36 -45 -33 -10 4
16 16 30 28 32 26 2 -2 -8 -16 -22 -30z m-40 -56 c-3 -5 -11 -10 -16 -10 -6 0
-7 5 -4 10 3 6 11 10 16 10 6 0 7 -4 4 -10z m-49 -39 c9 8 14 8 14 1 0 -6 -6
-15 -14 -19 -7 -4 -15 -15 -18 -23 -3 -8 -5 3 -5 25 0 22 2 32 5 22 3 -14 7
-16 18 -6z m-70 -92 c-5 -31 -25 -63 -27 -43 -8 65 -6 74 13 74 16 0 18 -5 14
-31z m-148 -102 c2 -10 -3 -17 -12 -17 -10 0 -16 9 -16 21 0 24 23 21 28 -4z
m87 12 c4 -6 -2 -21 -14 -33 -12 -12 -21 -28 -21 -35 0 -7 -4 -9 -10 -6 -5 3
-10 0 -10 -7 0 -10 -2 -10 -9 1 -6 9 -4 19 5 28 8 8 14 19 14 25 0 5 7 7 16 4
12 -4 14 -1 9 14 -7 21 9 28 20 9z m-81 -164 c-4 -8 -7 -15 -9 -15 -2 0 -5 7
-9 15 -3 9 0 15 9 15 9 0 12 -6 9 -15z m1719 -52 c-7 -2 -21 -2 -30 0 -10 3
-4 5 12 5 17 0 24 -2 18 -5z m112 -3 c13 -5 14 -9 5 -9 -8 0 -24 4 -35 9 -13
5 -14 9 -5 9 8 0 24 -4 35 -9z m-528 -6 c-3 -3 -12 -4 -19 -1 -8 3 -5 6 6 6
11 1 17 -2 13 -5z m120 -10 c-3 -3 -12 -4 -19 -1 -8 3 -5 6 6 6 11 1 17 -2 13
-5z m568 -25 c16 -7 13 -8 -12 -4 -34 5 -47 -11 -15 -17 9 -2 -7 -4 -37 -4
-33 0 -56 -5 -59 -12 -5 -15 -38 -16 -47 -2 -3 6 -1 10 5 10 6 0 8 4 5 10 -3
6 1 7 9 4 9 -4 18 1 22 10 5 12 19 16 58 15 28 0 60 -5 71 -10z m-860 -9 c-27
-12 -43 -12 -25 0 8 5 22 9 30 9 10 0 8 -3 -5 -9z m262 -5 c-17 -16 -166 -24
-188 -9 -14 9 54 18 159 22 38 2 42 0 29 -13z m348 5 c-3 -5 -10 -10 -16 -10
-5 0 -9 5 -9 10 0 6 7 10 16 10 8 0 12 -4 9 -10z m-575 -20 c0 -5 -6 -10 -14
-10 -8 0 -18 5 -21 10 -3 6 3 10 14 10 12 0 21 -4 21 -10z m-110 -10 c-8 -5
-19 -10 -25 -10 -5 0 -3 5 5 10 8 5 20 10 25 10 6 0 3 -5 -5 -10z m968 -7
c-10 -2 -26 -2 -35 0 -10 3 -2 5 17 5 19 0 27 -2 18 -5z m37 -3 c-3 -6 4 -24
15 -41 12 -16 19 -33 16 -36 -3 -4 1 -18 11 -32 9 -14 17 -40 19 -58 2 -30 1
-31 -14 -17 -8 9 -16 24 -17 35 -1 10 -9 26 -17 36 -24 26 -39 71 -27 78 5 4
7 11 4 16 -6 9 2 29 11 29 3 0 2 -5 -1 -10z m-2152 -41 c-4 -15 -9 -17 -17 -9
-8 8 -7 13 4 20 8 5 16 10 17 10 0 0 -1 -9 -4 -21z m-23 -34 c0 -5 -5 -3 -10
5 -5 8 -10 20 -10 25 0 6 5 3 10 -5 5 -8 10 -19 10 -25z m995 -5 c3 -5 -1 -10
-9 -10 -9 0 -16 5 -16 10 0 6 4 10 9 10 6 0 13 -4 16 -10z m-60 -30 c3 -6 -1
-7 -9 -4 -18 7 -21 14 -7 14 6 0 13 -4 16 -10z m1259 -122 c-11 -74 -20 -83
-29 -27 -5 30 -3 44 6 50 19 11 27 3 23 -23z m72 0 c1 -13 6 -37 9 -53 6 -28
4 -31 -20 -33 -22 -2 -26 1 -20 16 5 9 9 28 10 42 1 14 3 34 3 44 2 25 14 14
18 -16z m-1819 -380 c-3 -7 -5 -2 -5 12 0 14 2 19 5 13 2 -7 2 -19 0 -25z
m-610 -200 c-3 -7 -5 -2 -5 12 0 14 2 19 5 13 2 -7 2 -19 0 -25z m373 -392 c0
-3 -4 -8 -10 -11 -5 -3 -10 -1 -10 4 0 6 5 11 10 11 6 0 10 -2 10 -4z m2106
-112 c-4 -14 -9 -24 -12 -21 -3 2 -2 17 2 31 3 15 9 25 11 22 3 -3 2 -17 -1
-32z m1 -266 c-3 -7 -5 -2 -5 12 0 14 2 19 5 13 2 -7 2 -19 0 -25z m-77 -163
c0 -8 -2 -15 -4 -15 -2 0 -6 7 -10 15 -3 8 -1 15 4 15 6 0 10 -7 10 -15z m-12
-80 c-5 -22 -3 -23 10 -13 13 12 14 10 2 -9 -8 -12 -18 -19 -22 -17 -12 8 -9
64 3 64 7 0 9 -10 7 -25z m-58 -125 c0 -5 -2 -10 -4 -10 -3 0 -8 5 -11 10 -3
6 -1 10 4 10 6 0 11 -4 11 -10z m12 -52 c-6 -6 -7 0 -4 19 5 21 7 23 10 9 2
-10 0 -22 -6 -28z"/>
<path d="M7797 9110 c10 -11 24 -20 32 -20 9 0 6 7 -9 20 -13 11 -27 20 -31
20 -5 0 -1 -9 8 -20z"/>
<path d="M6350 9090 c30 -11 60 -19 65 -19 18 0 -80 38 -100 38 -11 0 5 -8 35
-19z"/>
<path d="M7854 9082 c9 -15 206 -163 205 -154 0 4 -41 39 -90 77 -97 75 -126
94 -115 77z"/>
<path d="M5688 9053 c7 -3 16 -2 19 1 4 3 -2 6 -13 5 -11 0 -14 -3 -6 -6z"/>
<path d="M5756 9052 c-3 -5 8 -6 25 -4 16 2 29 6 29 8 0 8 -49 4 -54 -4z"/>
<path d="M5907 9018 c35 -6 58 -6 70 1 14 8 1 10 -52 10 l-70 -1 52 -10z"/>
<path d="M6604 9005 c11 -8 24 -15 30 -15 5 0 1 7 -10 15 -10 8 -23 14 -29 14
-5 0 -1 -6 9 -14z"/>
<path d="M5760 8996 c0 -14 17 -16 118 -15 135 0 125 13 -20 23 -85 6 -98 5
-98 -8z"/>
<path d="M6650 8986 c0 -2 9 -6 20 -9 11 -3 18 -1 14 4 -5 9 -34 13 -34 5z"/>
<path d="M6830 8910 c8 -5 22 -9 30 -9 10 0 8 3 -5 9 -27 12 -43 12 -25 0z"/>
<path d="M6960 8910 c0 -5 7 -10 16 -10 8 0 12 5 9 10 -3 6 -10 10 -16 10 -5
0 -9 -4 -9 -10z"/>
<path d="M8103 8886 c21 -20 42 -36 46 -36 5 0 23 -18 40 -39 18 -21 41 -41
53 -44 24 -7 -26 41 -117 110 -52 39 -55 41 -22 9z"/>
<path d="M6619 8866 c6 -8 24 -16 39 -18 15 -3 36 -8 47 -12 11 -4 -2 4 -29
19 -56 28 -74 32 -57 11z"/>
<path d="M6960 8856 c0 -3 9 -10 20 -16 11 -6 20 -8 20 -6 0 3 -9 10 -20 16
-11 6 -20 8 -20 6z"/>
<path d="M6733 8815 c0 -10 6 -14 14 -10 8 2 31 -4 51 -15 37 -19 59 -27 76
-28 5 0 12 -4 15 -9 8 -10 133 -73 146 -73 13 0 -40 29 -160 88 -126 62 -142
67 -142 47z"/>
<path d="M7010 8826 c0 -2 7 -7 16 -10 8 -3 12 -2 9 4 -6 10 -25 14 -25 6z"/>
<path d="M5937 8788 c-7 -4 7 -8 31 -8 26 0 41 4 37 10 -7 11 -50 10 -68 -2z"/>
<path d="M6100 8790 l-25 -8 27 -1 c15 -1 30 4 33 9 7 11 0 11 -35 0z"/>
<path d="M6311 8761 c-9 -6 11 -9 57 -8 39 0 68 5 66 9 -7 11 -106 10 -123 -1z"/>
<path d="M7157 8749 c7 -7 15 -10 18 -7 3 3 -2 9 -12 12 -14 6 -15 5 -6 -5z"/>
<path d="M6538 8743 c7 -3 16 -2 19 1 4 3 -2 6 -13 5 -11 0 -14 -3 -6 -6z"/>
<path d="M6593 8743 c9 -2 25 -2 35 0 9 3 1 5 -18 5 -19 0 -27 -2 -17 -5z"/>
<path d="M8290 8720 c8 -5 20 -10 25 -10 6 0 3 5 -5 10 -8 5 -19 10 -25 10 -5
0 -3 -5 5 -10z"/>
<path d="M7225 8710 c3 -5 8 -10 11 -10 2 0 4 5 4 10 0 6 -5 10 -11 10 -5 0
-7 -4 -4 -10z"/>
<path d="M8330 8697 c0 -2 15 -16 33 -33 l32 -29 -29 33 c-28 30 -36 37 -36
29z"/>
<path d="M7344 8639 c26 -17 51 -28 54 -25 3 3 3 7 1 9 -29 17 -90 47 -96 47
-4 0 14 -14 41 -31z"/>
<path d="M5295 8620 c-8 -14 4 -52 15 -45 5 3 11 1 15 -5 8 -14 35 -13 35 1 0
6 -7 9 -15 5 -11 -4 -15 2 -15 24 0 30 -22 42 -35 20z"/>
<path d="M7140 8610 c0 -5 5 -10 11 -10 5 0 7 5 4 10 -3 6 -8 10 -11 10 -2 0
-4 -4 -4 -10z"/>
<path d="M8437 8590 c18 -19 34 -32 36 -29 2 2 -12 17 -32 33 l-36 30 32 -34z"/>
<path d="M7410 8606 c0 -2 8 -10 18 -17 15 -13 16 -12 3 4 -13 16 -21 21 -21
13z"/>
<path d="M8510 8515 c13 -14 26 -25 28 -25 3 0 -5 11 -18 25 -13 14 -26 25
-28 25 -3 0 5 -11 18 -25z"/>
<path d="M8557 8470 c6 -7 9 -20 6 -29 -4 -9 -2 -13 2 -9 5 5 24 -4 44 -19
l36 -27 -39 44 c-22 25 -45 47 -50 49 -7 2 -6 -2 1 -9z"/>
<path d="M7620 8453 c0 -13 29 -38 35 -31 3 3 -4 13 -15 23 -11 10 -20 13 -20
8z"/>
<path d="M7730 8361 c0 -5 7 -11 14 -14 10 -4 13 -1 9 9 -6 15 -23 19 -23 5z"/>
<path d="M8665 8350 c3 -5 8 -10 11 -10 2 0 4 5 4 10 0 6 -5 10 -11 10 -5 0
-7 -4 -4 -10z"/>
<path d="M8726 8285 c4 -8 11 -15 16 -15 6 0 5 6 -2 15 -7 8 -14 15 -16 15 -2
0 -1 -7 2 -15z"/>
<path d="M8750 8254 c0 -3 13 -19 30 -37 16 -18 30 -26 30 -19 0 7 -7 15 -15
18 -8 3 -17 14 -20 25 -6 17 -25 28 -25 13z"/>
<path d="M7950 8156 c0 -2 19 -19 43 -37 l42 -32 -38 37 c-36 34 -47 42 -47
32z"/>
<path d="M4830 8140 c0 -5 5 -10 10 -10 6 0 10 5 10 10 0 6 -4 10 -10 10 -5 0
-10 -4 -10 -10z"/>
<path d="M4865 8139 c-4 -6 -5 -13 -2 -16 7 -7 27 6 27 18 0 12 -17 12 -25 -2z"/>
<path d="M8840 8141 c0 -5 5 -13 10 -16 6 -3 10 -2 10 4 0 5 -4 13 -10 16 -5
3 -10 2 -10 -4z"/>
<path d="M8870 8111 c0 -5 5 -13 10 -16 6 -3 10 -2 10 4 0 5 -4 13 -10 16 -5
3 -10 2 -10 -4z"/>
<path d="M8086 8019 c32 -33 65 -67 72 -75 16 -16 32 -18 32 -4 0 6 -6 10 -13
10 -7 0 -39 29 -72 65 -32 36 -63 65 -68 65 -6 0 16 -27 49 -61z"/>
<path d="M8910 8055 c0 -5 20 -30 65 -80 14 -16 8 -4 -15 28 -40 53 -50 64
-50 52z"/>
<path d="M8180 7917 c0 -2 14 -16 32 -33 31 -29 31 -29 12 -2 -16 23 -44 45
-44 35z"/>
<path d="M9035 7880 c10 -11 20 -18 23 -15 7 6 -18 35 -31 35 -5 0 -2 -9 8
-20z"/>
<path d="M8269 7825 c6 -11 22 -33 36 -50 20 -24 23 -26 19 -8 -3 11 -19 34
-36 49 -21 20 -27 23 -19 9z"/>
<path d="M9080 7820 c0 -5 5 -10 11 -10 5 0 7 5 4 10 -3 6 -8 10 -11 10 -2 0
-4 -4 -4 -10z"/>
<path d="M9170 7690 c0 -5 5 -10 11 -10 5 0 7 5 4 10 -3 6 -8 10 -11 10 -2 0
-4 -4 -4 -10z"/>
<path d="M9200 7646 c0 -8 4 -17 9 -20 5 -4 7 3 4 14 -6 23 -13 26 -13 6z"/>
<path d="M8448 7586 c28 -45 44 -56 21 -14 -7 12 -13 25 -12 29 1 3 -7 10 -17
17 -15 9 -14 3 8 -32z"/>
<path d="M8500 7511 c0 -6 4 -13 10 -16 6 -3 7 1 4 9 -7 18 -14 21 -14 7z"/>
<path d="M8525 7470 c3 -5 8 -10 11 -10 2 0 4 5 4 10 0 6 -5 10 -11 10 -5 0
-7 -4 -4 -10z"/>
<path d="M9310 7451 c0 -5 5 -13 10 -16 6 -3 10 -2 10 4 0 5 -4 13 -10 16 -5
3 -10 2 -10 -4z"/>
<path d="M8571 7399 c17 -27 33 -48 36 -45 5 5 -54 96 -62 96 -3 0 9 -23 26
-51z"/>
<path d="M8610 7330 c0 -4 10 -22 23 -41 12 -19 36 -60 52 -91 16 -31 31 -55
33 -53 6 5 -48 114 -65 130 -8 9 -16 26 -17 39 -1 19 -26 35 -26 16z"/>
<path d="M9380 7320 c6 -11 12 -20 14 -20 2 0 2 9 -1 20 -3 11 -9 20 -15 20
-5 0 -4 -9 2 -20z"/>
<path d="M9411 7254 c0 -11 3 -14 6 -6 3 7 2 16 -1 19 -3 4 -6 -2 -5 -13z"/>
<path d="M9457 7160 c15 -27 28 -48 30 -46 6 6 -41 95 -50 96 -4 0 5 -22 20
-50z"/>
<path d="M6820 7193 c1 -20 48 -103 52 -91 3 7 5 -2 5 -20 0 -19 4 -37 10 -40
23 -16 114 -281 150 -437 57 -249 69 -675 28 -998 -10 -75 -15 -106 -31 -172
-8 -38 -20 -88 -24 -110 -18 -87 -120 -403 -169 -530 -86 -217 -257 -577 -312
-657 -11 -14 -19 -28 -19 -31 0 -3 -22 -41 -49 -84 -259 -417 -563 -793 -941
-1159 -369 -358 -770 -642 -1198 -846 -391 -187 -697 -271 -1032 -285 -148 -7
-148 -7 15 -52 263 -73 491 -109 735 -118 648 -22 1481 181 2180 531 602 303
1202 823 1534 1331 242 369 391 778 441 1205 27 229 15 484 -36 735 -28 138
-68 291 -89 340 -5 11 -14 38 -21 60 -6 22 -22 64 -35 93 -13 28 -25 55 -25
60 -13 55 -202 383 -259 449 -11 13 -20 26 -20 28 0 3 -5 11 -10 18 -39 46
-50 61 -50 69 0 4 -5 8 -11 8 -6 0 -8 -9 -4 -22 5 -17 0 -14 -19 11 -14 19
-26 37 -26 40 0 3 7 -2 14 -11 7 -10 16 -18 20 -18 12 0 6 15 -17 40 -12 14
-35 41 -51 60 -132 162 -384 385 -604 534 -107 72 -132 85 -132 69z m116 -80
c-2 -3 -16 3 -30 12 -14 10 -26 14 -26 10 0 -3 -7 0 -15 9 -26 26 -16 25 31
-1 25 -14 43 -27 40 -30z m49 -29 c17 -12 18 -16 5 -24 -11 -7 -8 -11 15 -21
17 -7 35 -12 40 -11 6 1 11 -8 11 -21 1 -15 -7 -27 -22 -34 -21 -10 -24 -9
-24 7 0 11 -4 22 -10 25 -6 3 -10 -5 -10 -19 0 -14 -5 -28 -11 -32 -7 -4 -10
8 -9 37 1 24 1 47 0 52 -2 4 -3 11 -4 16 0 5 -4 13 -8 17 -5 4 -8 11 -8 16 0
12 12 9 35 -8z m-25 -75 c0 -22 -16 -33 -26 -18 -4 8 -3 9 4 5 8 -5 12 1 12
15 0 19 -2 20 -17 8 -15 -12 -16 -12 -10 4 4 10 7 24 7 30 1 19 30 -25 30 -44z
m142 -18 c7 -10 16 -19 21 -20 4 0 8 -4 9 -8 1 -5 19 -17 40 -27 26 -14 34
-22 26 -28 -7 -4 -8 -8 -3 -8 6 -1 -1 -6 -14 -11 -18 -7 -26 -5 -36 8 -7 10
-11 21 -9 25 3 5 -4 8 -15 8 -20 0 -48 36 -37 47 3 4 1 12 -5 20 -8 9 -8 13
-1 13 6 0 17 -8 24 -19z m-77 -81 c3 -5 -1 -10 -10 -10 -9 0 -13 5 -10 10 3 6
8 10 10 10 2 0 7 -4 10 -10z m212 -27 c2 -5 -5 -21 -16 -34 l-20 -24 -1 31 c0
17 3 34 7 38 9 8 26 3 30 -11z m-201 -48 c1 -46 -10 -64 -14 -22 -2 20 5 67
11 67 1 0 2 -20 3 -45z m284 -27 c0 -4 -10 -8 -22 -7 -22 0 -22 1 -3 9 17 7
11 12 -11 9 -10 -1 -23 24 -17 34 5 9 53 -31 53 -45z m-323 20 c-3 -8 -6 -5
-6 6 -1 11 2 17 5 13 3 -3 4 -12 1 -19z m309 -47 c-3 -5 1 -11 9 -15 8 -3 15
-14 15 -25 0 -28 19 -36 38 -16 13 13 14 19 4 22 -6 3 -9 9 -6 15 3 5 14 2 25
-8 24 -22 24 -34 0 -34 -14 0 -18 -5 -14 -20 6 -22 39 -27 46 -7 6 17 57 -31
57 -54 0 -19 27 -45 37 -35 6 6 29 -21 33 -39 1 -5 6 -16 12 -22 14 -18 -3
-16 -26 2 -11 8 -37 15 -58 15 -44 0 -45 3 -17 31 l22 22 -39 18 c-22 10 -48
18 -58 19 -11 0 -16 3 -13 7 14 14 -18 33 -56 33 l-40 0 6 38 c5 25 3 32 -3
22 -6 -9 -10 -10 -10 -3 0 23 12 43 27 43 8 0 12 -4 9 -9z m-279 -63 c-3 -8
-6 -5 -6 6 -1 11 2 17 5 13 3 -3 4 -12 1 -19z m203 12 c0 -5 -5 -10 -11 -10
-5 0 -7 5 -4 10 3 6 8 10 11 10 2 0 4 -4 4 -10z m-69 -233 c3 -72 -17 -81 -24
-11 -3 32 -3 62 0 67 11 18 23 -9 24 -56z m-57 -46 c-2 -2 -4 4 -4 15 0 16 -2
17 -11 4 -9 -12 -10 -12 -5 3 3 10 7 33 7 50 1 25 3 20 10 -18 4 -27 6 -51 3
-54z m456 49 c0 -5 -4 -10 -10 -10 -5 0 -10 5 -10 10 0 6 5 10 10 10 6 0 10
-4 10 -10z m39 -24 c6 -7 8 -22 4 -31 -4 -13 -3 -16 5 -11 8 5 10 2 6 -8 -3
-9 -1 -16 5 -16 6 0 11 4 11 9 0 5 7 12 16 15 9 4 13 2 8 -5 -4 -6 -2 -14 4
-18 6 -3 -16 -7 -49 -8 l-59 -1 3 37 c3 48 23 65 46 37z m-431 -119 c2 -21 -1
-37 -7 -37 -7 0 -11 -42 -12 -117 0 -65 -4 -127 -9 -138 -6 -14 -9 -16 -11 -5
-1 8 -5 -3 -9 -25 l-7 -40 -2 36 c0 23 5 42 15 50 13 11 16 31 13 109 -4 156
-1 212 14 208 6 -3 13 -21 15 -41z m525 26 c-4 -11 -3 -14 5 -9 7 4 12 1 12
-8 0 -21 -19 -30 -26 -12 -6 16 1 46 10 46 3 0 2 -7 -1 -17z m-596 -55 c-3 -8
-6 -5 -6 6 -1 11 2 17 5 13 3 -3 4 -12 1 -19z m635 -30 c-9 -15 -19 -25 -24
-22 -4 3 -1 16 8 30 16 23 16 24 -2 17 -17 -6 -17 -5 -6 10 11 13 17 14 27 4
11 -10 10 -17 -3 -39z m51 -39 c3 -10 1 -17 -4 -13 -11 6 -12 -9 -2 -20 12
-11 14 -56 3 -56 -5 0 -10 10 -10 23 0 12 -6 33 -13 47 -8 14 -12 31 -10 37 6
17 30 5 36 -18z m37 -84 c0 -15 2 -17 9 -6 6 9 11 10 15 2 4 -6 2 -11 -4 -11
-7 0 -9 -7 -6 -17 6 -16 6 -16 -12 0 -11 10 -19 32 -20 49 -1 23 2 28 8 18 6
-8 10 -24 10 -35z m58 -76 c10 -14 10 -18 -2 -22 -9 -4 -18 -1 -22 5 -5 7 -2
8 6 3 9 -6 10 -2 5 16 -4 13 -6 22 -3 19 2 -3 9 -12 16 -21z m-3 -69 c4 -6 15
-8 26 -5 14 5 19 2 19 -14 0 -11 5 -23 10 -26 23 -14 8 -23 -22 -13 -18 6 -40
13 -48 16 -12 3 -11 6 5 12 17 7 17 9 3 9 -10 1 -18 8 -18 16 0 17 16 20 25 5z
m-688 -22 c-3 -8 -6 -5 -6 6 -1 11 2 17 5 13 3 -3 4 -12 1 -19z m743 -62 c0
-2 -7 -9 -15 -16 -13 -11 -14 -10 -9 4 5 14 24 23 24 12z m40 -48 c0 -8 5 -19
12 -26 6 -6 9 -14 6 -18 -8 -7 -33 32 -43 66 -7 22 -6 23 9 8 9 -9 16 -23 16
-30z m60 -113 c5 -14 12 -38 16 -53 5 -26 5 -26 -10 -7 -8 11 -20 25 -25 32
-7 8 -7 13 2 16 9 3 9 8 -2 20 -9 12 -10 17 -2 17 6 0 16 -11 21 -25z m-11
-75 c0 -10 -3 -8 -9 5 -12 27 -12 43 0 25 5 -8 9 -22 9 -30z m35 -26 c9 -3 18
-24 22 -50 3 -24 11 -44 16 -44 6 0 8 -14 3 -36 -4 -22 -3 -34 3 -30 6 3 8 -2
5 -14 -3 -11 -1 -20 5 -20 12 0 46 -146 38 -166 -4 -12 -10 -12 -26 -4 -21 11
-28 64 -10 75 6 3 10 15 10 26 0 10 -4 19 -10 19 -5 0 -10 10 -11 23 0 21 -1
21 -10 2 -7 -15 -8 -11 -4 17 3 20 1 39 -4 42 -5 3 -12 24 -16 46 -4 22 -10
38 -15 35 -4 -3 -10 15 -12 40 -2 25 -2 45 -1 45 1 0 8 -3 17 -6z m-954 -104
c0 -11 -4 -20 -9 -20 -5 0 -7 9 -4 20 3 11 7 20 9 20 2 0 4 -9 4 -20z m-2 -86
c-1 -31 -4 -51 -6 -45 -2 6 -11 11 -19 11 -11 0 -13 4 -5 13 5 6 13 27 17 45
10 48 16 39 13 -24z m59 -36 c-3 -8 -6 -5 -6 6 -1 11 2 17 5 13 3 -3 4 -12 1
-19z m903 -4 c0 -8 -4 -14 -10 -14 -5 0 -10 9 -10 21 0 11 5 17 10 14 6 -3 10
-13 10 -21z m27 -76 c-3 -7 -5 -2 -5 12 0 14 2 19 5 13 2 -7 2 -19 0 -25z m87
-258 c-7 -7 -11 5 -11 32 l-2 43 11 -33 c7 -21 8 -36 2 -42z m-1177 13 c-3
-10 -5 -2 -5 17 0 19 2 27 5 18 2 -10 2 -26 0 -35z m1189 -90 c-10 -10 -19 5
-10 18 6 11 8 11 12 0 2 -7 1 -15 -2 -18z m-1239 -55 c-3 -8 -6 -5 -6 6 -1 11
2 17 5 13 3 -3 4 -12 1 -19z m1240 -140 c-2 -29 -3 -6 -3 52 0 58 1 81 3 53 2
-29 2 -77 0 -105z m-10 -115 c-3 -10 -5 -2 -5 17 0 19 2 27 5 18 2 -10 2 -26
0 -35z m0 -90 c-2 -16 -4 -5 -4 22 0 28 2 40 4 28 2 -13 2 -35 0 -50z m-40
-245 c-3 -8 -6 -5 -6 6 -1 11 2 17 5 13 3 -3 4 -12 1 -19z m-14 -88 c-3 -12
-8 -19 -11 -16 -5 6 5 36 12 36 2 0 2 -9 -1 -20z"/>
<path d="M7155 6910 c3 -5 8 -10 11 -10 2 0 4 5 4 10 0 6 -5 10 -11 10 -5 0
-7 -4 -4 -10z"/>
<path d="M7440 6660 c6 -11 16 -20 22 -20 6 0 3 9 -7 20 -10 11 -20 20 -22 20
-2 0 1 -9 7 -20z"/>
<path d="M8736 7105 c4 -9 19 -41 34 -70 25 -49 28 -51 39 -32 11 17 11 19 -2
14 -11 -4 -20 7 -31 38 -10 24 -24 49 -32 56 -12 10 -13 9 -8 -6z"/>
<path d="M9441 7054 c0 -11 3 -14 6 -6 3 7 2 16 -1 19 -3 4 -6 -2 -5 -13z"/>
<path d="M9510 7056 c0 -15 21 -56 29 -56 5 0 3 14 -5 30 -14 27 -24 38 -24
26z"/>
<path d="M9560 6954 c0 -7 7 -27 15 -45 8 -19 14 -29 15 -23 0 7 -7 27 -15 45
-8 19 -14 29 -15 23z"/>
<path d="M8943 6883 c-15 -5 -17 -23 -4 -23 5 0 11 7 15 15 3 8 4 15 3 14 -1
0 -8 -3 -14 -6z"/>
<path d="M9601 6844 c0 -11 3 -14 6 -6 3 7 2 16 -1 19 -3 4 -6 -2 -5 -13z"/>
<path d="M9627 6770 c7 -25 23 -37 23 -17 0 8 -6 20 -14 26 -12 10 -13 8 -9
-9z"/>
<path d="M8942 6725 c0 -11 3 -29 8 -40 11 -25 11 1 0 35 -6 20 -8 21 -8 5z"/>
<path d="M9650 6710 c0 -11 4 -20 9 -20 5 0 7 9 4 20 -3 11 -7 20 -9 20 -2 0
-4 -9 -4 -20z"/>
<path d="M9631 6684 c0 -11 3 -14 6 -6 3 7 2 16 -1 19 -3 4 -6 -2 -5 -13z"/>
<path d="M9681 6634 c0 -11 3 -14 6 -6 3 7 2 16 -1 19 -3 4 -6 -2 -5 -13z"/>
<path d="M9690 6607 c0 -14 32 -112 41 -121 5 -5 4 7 -2 27 -11 42 -38 106
-39 94z"/>
<path d="M9736 6435 c8 -37 14 -45 14 -19 0 10 -5 26 -10 34 -8 11 -9 7 -4
-15z"/>
<path d="M9761 6354 c0 -11 3 -14 6 -6 3 7 2 16 -1 19 -3 4 -6 -2 -5 -13z"/>
<path d="M9771 6314 c0 -11 3 -14 6 -6 3 7 2 16 -1 19 -3 4 -6 -2 -5 -13z"/>
<path d="M9781 6274 c0 -11 3 -14 6 -6 3 7 2 16 -1 19 -3 4 -6 -2 -5 -13z"/>
<path d="M9797 6205 c3 -22 7 -42 9 -44 8 -9 2 45 -6 64 -7 14 -8 8 -3 -20z"/>
<path d="M9193 6090 c0 -41 2 -58 4 -37 2 20 2 54 0 75 -2 20 -4 3 -4 -38z"/>
<path d="M9812 6130 c0 -14 2 -19 5 -12 2 6 2 18 0 25 -3 6 -5 1 -5 -13z"/>
<path d="M9842 5970 c0 -14 2 -19 5 -12 2 6 2 18 0 25 -3 6 -5 1 -5 -13z"/>
<path d="M9852 5910 c0 -19 3 -44 8 -55 8 -18 9 -18 8 5 0 14 -4 39 -8 55 l-8
30 0 -35z"/>
<path d="M9860 5810 c0 -11 5 -20 10 -20 6 0 10 9 10 20 0 11 -4 20 -10 20 -5
0 -10 -9 -10 -20z"/>
<path d="M9841 5775 c1 -19 18 -51 18 -35 0 8 -4 22 -9 30 -5 8 -9 11 -9 5z"/>
<path d="M9876 5705 c4 -44 10 -87 15 -95 9 -15 3 45 -12 130 -6 32 -6 21 -3
-35z"/>
<path d="M9893 5535 c0 -22 2 -30 4 -17 2 12 2 30 0 40 -3 9 -5 -1 -4 -23z"/>
<path d="M9902 5465 c0 -16 2 -22 5 -12 2 9 2 23 0 30 -3 6 -5 -1 -5 -18z"/>
</g>
</svg>
